/* XPM */
static char *_9aca4cadcee4157b1d99468e0b68165[] = {
/* columns rows colors chars-per-pixel */
"32 32 192 2 ",
"   c None",
".  c #886732",
"X  c #8A6B35",
"o  c #8D6F39",
"O  c #8D703C",
"+  c #9B733F",
"@  c #A97D3D",
"#  c #A67D3A",
"$  c #907447",
"%  c #9D7F43",
"&  c #907548",
"*  c #A97F42",
"=  c #AC833E",
"-  c #B1833C",
";  c #B7883E",
":  c #CC943F",
">  c #9D8046",
",  c #9E814A",
"<  c #9F8453",
"1  c #AC8442",
"2  c #AE8943",
"3  c #A5864E",
"4  c #AD8C4B",
"5  c #B58641",
"6  c #B38D44",
"7  c #B88942",
"8  c #BC9345",
"9  c #B4924B",
"0  c #BB9449",
"q  c #BB9A4D",
"w  c #AA8F5B",
"e  c #AA8E53",
"r  c #AE9155",
"t  c #AE935C",
"y  c #B09250",
"u  c #BB9B52",
"i  c #B0975D",
"p  c #B79A5B",
"a  c #B99957",
"s  c #B69B63",
"d  c #B69D6F",
"f  c #B99F6E",
"g  c #B99E62",
"h  c #BFA361",
"j  c #BEA66F",
"k  c #BCA574",
"l  c #C69443",
"z  c #CB9641",
"x  c #C79847",
"c  c #CE9943",
"v  c #C29748",
"b  c #C29A4B",
"n  c #C99A4C",
"m  c #D09741",
"M  c #D29B44",
"N  c #C29E56",
"B  c #C8A04E",
"V  c #D4A44C",
"C  c #D9A64C",
"Z  c #DCAD4E",
"A  c #D2A94D",
"S  c #D6B04E",
"D  c #C3A254",
"F  c #C7A852",
"G  c #CCAB51",
"H  c #C5A159",
"J  c #C9A55A",
"K  c #CCAC5D",
"L  c #CDA254",
"P  c #D5A552",
"I  c #D8A751",
"U  c #D6A954",
"Y  c #DBAA52",
"T  c #D4AB5B",
"R  c #DEAF59",
"E  c #CFB056",
"W  c #CDB05A",
"Q  c #D4B453",
"!  c #DDB057",
"~  c #D5B55A",
"^  c #DBB55B",
"/  c #D7B85C",
"(  c #D8B959",
")  c #E1B256",
"_  c #E3B65A",
"`  c #E6B95C",
"'  c #E8BC5F",
"]  c #C2A563",
"[  c #CBAC61",
"{  c #C6AC6B",
"}  c #CAAC69",
"|  c #CFB360",
" . c #CCB26D",
".. c #D3B564",
"X. c #DDBD63",
"o. c #D1B46D",
"O. c #C1AB79",
"+. c #CDB375",
"@. c #CFB678",
"#. c #D2B973",
"$. c #DABE77",
"%. c #E4BA62",
"&. c #E9BF61",
"*. c #E5BC6C",
"=. c #E8BF69",
"-. c #E1B664",
";. c #E7BF71",
":. c #ECCD5D",
">. c #DEC166",
",. c #DAC179",
"<. c #E3C365",
"1. c #EBC364",
"2. c #ECC46B",
"3. c #EFC96A",
"4. c #E3C56B",
"5. c #F1CE6D",
"6. c #EED164",
"7. c #EED26B",
"8. c #FADE64",
"9. c #F2D16D",
"0. c #F1D267",
"q. c #EBC574",
"w. c #E5C974",
"e. c #EBCB73",
"r. c #E5C67C",
"t. c #E3C97F",
"y. c #E8C77B",
"u. c #F1CF7C",
"i. c #F6D473",
"p. c #F8D775",
"a. c #F8D875",
"s. c #F7D87C",
"d. c #F9DA7B",
"f. c #F0D37B",
"g. c #B3A58F",
"h. c #CFB98C",
"j. c #C9B383",
"k. c #D1BB88",
"l. c #C2B395",
"z. c #C7BA9E",
"x. c #CBBC99",
"c. c #C6BAA1",
"v. c #DFC486",
"b. c #DDC489",
"n. c #DBC491",
"m. c #E1C680",
"M. c #E7CB80",
"N. c #E3CC8B",
"B. c #EACF8D",
"V. c #EFD386",
"C. c #EED08C",
"Z. c #F3D483",
"A. c #F7D985",
"S. c #FADC83",
"D. c #F3D68A",
"F. c #F5DB8C",
"G. c #FADD8B",
"H. c #E3CB91",
"J. c #E8CF9A",
"K. c #E8CE97",
"L. c #ECD393",
"P. c #EBD59D",
"I. c #E6D195",
"U. c #F2D591",
"Y. c #F5DC91",
"T. c #F3DB9A",
"R. c #F8DD9A",
"E. c #F0D59D",
"W. c #FBE094",
"Q. c #FBE29B",
"!. c #CFC1A6",
"~. c #D7C8A7",
"^. c #D5C7A8",
"/. c #D7C8A9",
"(. c #D8C9A8",
"). c #D1C3A7",
"_. c #ECD7A2",
"`. c #E7D8AB",
"'. c #E7D4A7",
"]. c #F3DCA2",
"[. c #F8DEA3",
"{. c #F4DEAA",
"}. c #EEDCB1",
"|. c #FBE4A3",
" X c #F5E2AE",
".X c #FCE6AB",
"XX c #FBE9AD",
"oX c #FDE9B4",
"OX c #F4E6B8",
"+X c #FDEABA",
"@X c #F6E4B4",
"#X c #F9EDC4",
/* pixels */
"                      g.c.).~.~.~.^.!.c.g.                      ",
"                  z.OXXX+X#X#X#X#X#X+X{.E.}.z.                  ",
"              l.OXoXoXP.+.{ { { { ] s d x.`.K.K.l.              ",
"            `.oXoXN. .o.A.S.d.i.5.5.3.<.N t k _.M.J.            ",
"           XoXT.#.N.[.R.2.1.S.d.5.5.5.5.3.2.T w h.C.P.          ",
"        ].XX,.+.[.D..X|.Z.A.G.S.s.p.i.5.p.p.&._ p O.B.B.        ",
"      I.|.,.#.+XU._ R..X|.Q.W.S.S.d.a.i.i.5.1.&.=.] { r.H.      ",
"    O.W.m.o.|.XX.X[.oX.X|.|.Q.W.G.S.d.a.i.5.3.u.|.2.p @.;.O.    ",
"    F.V.K F.Z.Q..XoX+XoXXX.X|.Q.W.G.S.d.a.9.9.5.A.&._ e M.y.    ",
"  { S.| e.Z.` D.|..XoX+XoXXX|.|.Q.W.G.S.d.a.i.9.3.1.&.T p q.{   ",
"  f.f.K S.G.A.R.Q.|..XoX+XoXXX.XQ.Q.W.G.S.d.a.i.5.5. XZ.e e.e.  ",
"i i.W >.d.S.S.t.D.B.|..XoXOXP.Q.|.|.Q.F.y.4.7.6.1.5.R.Z.D J 1.i ",
"] 9.q 9.5.i.S.O / 4 ,.|.XX Xk 7.|. XL.y q E :.:.G 9 <.3.1.9 3.] ",
"[ 9.q 5.5.9.d.O ( 4 u Y.|.P.j i.{.XX< 3 [ V.G.s.( 9 ..9.3.4 9.K ",
"[ 3.D 3.5.i.a.O ~ 4 q >.Q.L., W.{.J.$ p Q.Q.W.G.s.f.a.G.A.u 3.K ",
"K 2.B 1.3.5.i.o ~ D q ( d.L., 7. Xh.& H..X|.W.W.G.S.d.S.d.D 2.K ",
"J 1.b ' 5.5.5.o Q X.F ( 8.t., 6._.j.$ P.XX.X|.Q.W.G.S.d.a.D 1.K ",
"J ' q ' i.3.2.X Q >.e.( 8.W > 6.T.k.& n.oXXX|.|.Q.W.G.S.d.u &.J ",
"N ' 2 Y _ ` &.X Q / a.<.8.F > 6.U.K.$ t @XoXXX.XQ.o.D.S.S.9 1.N ",
"a _ 5 C Z ) ` . Q / i.d.8.F > 6.V.R.w 3 h I.Q.Y...y r d.A.9 1.a ",
"3 Z v v Y Z.=.. S ~ 5.i.p.B # 6.V.W.T.h a | 7.3.[ ] T.Q.o.n 3.3 ",
"  I P 2 Y D.*.P _ ' 3.9.p.i.e.d.S.W.W.|.T.T.|.XXXX.X|.|.q ! _   ",
"  9 C 1 x V C Y ) _ :.1.5.p.d.d.S.G.G.W.Q.|.XXoXoXs.A.m.b 2.9   ",
"    V V 5 m M -.*.) _ &.3.5.p.p.d.S.G.G.Q.Q.|..XoXR.Q.u ! -.    ",
"    4 M 7 9 M [.{.Y ) ` &.2.5.p.d.d.S.S.G.Q.Q.R..XoX} A q.4     ",
"      n M 5 b P Y C Y ` _ :.3.5.i.d.d.S.G.G.i.i.|.o.A =.L       ",
"        M M = 9 M M q.R.%.` &.3.5.i.d.d.S.S.S.D...Z %.T         ",
"          m M ; = x I q.Y ) 3.S.5.9.a.i.d.S.w.Q Z *.T           ",
"            l z z # 1 v V Z ' 5.&.3.5.9.X.U B C ;.n             ",
"              * : m : = # = 6 0 x v 8 8 x M ) U 1               ",
"                  * z m M M z : z M M C R M 1                   ",
"                      + @ - ; 7 7 7 5 @ %                       "
};
