/* XPM */
static char *_be0a76e052b4191ea76708468c9479e[] = {
/* columns rows colors chars-per-pixel */
"16 16 179 2 ",
"   c None",
".  c #9D7F45",
"X  c #967B4C",
"o  c #A97E41",
"O  c #9D8048",
"+  c #AB8043",
"@  c #AD8344",
"#  c #B38441",
"$  c #B38541",
"%  c #B38940",
"&  c #B68841",
"*  c #B48843",
"=  c #B78D44",
"-  c #B88D43",
";  c #B88E44",
":  c #B88F46",
">  c #B18748",
",  c #B28B4B",
"<  c #B48D4D",
"1  c #BB9247",
"2  c #A48A5A",
"3  c #AA8E58",
"4  c #AB905B",
"5  c #B69252",
"6  c #BA9652",
"7  c #BC9D51",
"8  c #BFA151",
"9  c #B69C6A",
"0  c #B39A6D",
"q  c #C59341",
"w  c #C09245",
"e  c #C19446",
"r  c #C69748",
"t  c #C19F54",
"y  c #CA9E51",
"u  c #CEA14E",
"i  c #CDA64E",
"p  c #D4A54B",
"a  c #D9A64C",
"s  c #C4A256",
"d  c #CCA350",
"f  c #CEA652",
"g  c #CEA653",
"h  c #CEA953",
"j  c #CDAF52",
"k  c #C8A857",
"l  c #CBAA57",
"z  c #CFA954",
"x  c #C0A059",
"c  c #C4A059",
"v  c #C5A159",
"b  c #C6A35A",
"n  c #CAA65A",
"m  c #C9A75C",
"M  c #C5A85D",
"N  c #D0A856",
"B  c #D8AD55",
"V  c #D5AA5C",
"C  c #CFB15A",
"Z  c #D8B256",
"A  c #D0B25F",
"S  c #D2B25E",
"D  c #DAB159",
"F  c #DDB15A",
"G  c #DDBC5A",
"H  c #E1B256",
"J  c #E2B357",
"K  c #E2B358",
"L  c #E3BA5B",
"P  c #C4A666",
"I  c #C3A967",
"U  c #C8AA60",
"Y  c #CCAD61",
"T  c #CEAE60",
"R  c #C7A969",
"E  c #CDB065",
"W  c #D2B266",
"Q  c #DFB361",
"!  c #D4B76B",
"~  c #D8B968",
"^  c #C0A673",
"/  c #C6AD73",
"(  c #C4AD79",
")  c #C5AF7D",
"_  c #D3B973",
"`  c #DCBF70",
"'  c #D9BF7A",
"]  c #E0BE63",
"[  c #E0C05F",
"{  c #DCC172",
"}  c #DEC27B",
"|  c #DFC27C",
" . c #EBC061",
".. c #EDC467",
"X. c #E6C76D",
"o. c #E8C06A",
"O. c #EDC569",
"+. c #EDC76F",
"@. c #F0C96A",
"#. c #F1CC6B",
"$. c #F0CD6C",
"%. c #F1CE6D",
"&. c #F2CF6D",
"*. c #F2CF6E",
"=. c #F7DB62",
"-. c #F1D36C",
";. c #F4D06F",
":. c #F8DC6E",
">. c #E3C570",
",. c #E5C374",
"<. c #E7C977",
"1. c #EECE70",
"2. c #E2C47B",
"3. c #EFCC7B",
"4. c #EECA7E",
"5. c #F0CB71",
"6. c #F4D170",
"7. c #F7D774",
"8. c #F8D971",
"9. c #F8D875",
"0. c #F9D978",
"q. c #F9DA7A",
"w. c #C7B381",
"e. c #C6B596",
"r. c #C5B89D",
"t. c #C7BA9F",
"y. c #C9BA98",
"u. c #D6C181",
"i. c #DBC081",
"p. c #DEC384",
"a. c #E7CD82",
"s. c #E0C988",
"d. c #F0CF8A",
"f. c #F8DA81",
"g. c #F9DB82",
"h. c #F9DC83",
"j. c #FADC82",
"k. c #FADC83",
"l. c #F7DB88",
"z. c #F3DB8D",
"x. c #FADD88",
"c. c #F9DD8D",
"v. c #F9DC8E",
"b. c #FADE8E",
"n. c #E3CB93",
"m. c #E1CD99",
"M. c #EBD291",
"N. c #EBD392",
"B. c #ECD290",
"V. c #EAD195",
"C. c #F9DF93",
"Z. c #F8DF9B",
"A. c #F8DD9D",
"S. c #FBE092",
"D. c #FBE093",
"F. c #FAE19C",
"G. c #FBE29D",
"H. c #D1C6A9",
"J. c #D3C6AB",
"K. c #D4C8AC",
"L. c #D4C8AD",
"P. c #E4D2A2",
"I. c #E3D0A5",
"U. c #F5DEA4",
"Y. c #F9E3A1",
"T. c #FBE3A0",
"R. c #FCE4A1",
"E. c #FCE5A4",
"W. c #FCE5AA",
"Q. c #FDE6AA",
"!. c #FCE6AB",
"~. c #FDE6AB",
"^. c #FBE5AC",
"/. c #FCE6AD",
"(. c #FDE7AE",
"). c #FDE7AF",
"_. c #F4E4B1",
"`. c #F8E4B3",
"'. c #FEEAB9",
/* pixels */
"          t.J.K.L.H.r.          ",
"      y._.u._ ! W P ^ I.e.      ",
"    P.s.p.R.+.k.6.&.;.b ( m.    ",
"  w.' V.d.!.R.S.k.9.*...,./ )   ",
"  a.` 3.~.'.(.R.S.k.9.&.O.n 2.  ",
"R A k.v.F.~.'./.R.S.g.7.%.A.x I ",
"E l @.<.8 } W.9 ^.4 M -.j $.t E ",
"Y z &.X.C 7 C.3 `.2 T.S.f.h.~ Y ",
"m d #.] [ k :.O U.0 ).R.D.k.S m ",
"c 1 H D G 1.=.. Z.X n.Y.{ l.T v ",
"5 : o.F L &.8.U c.B.i.z.N.R.s 6 ",
"  u w a K  .&.0.k.b.G.Q.E.| B   ",
"  , ; V Q K  .&.0.k.b.x.M.N <   ",
"    r = e 4.J 5.&.q.j.>.Z y     ",
"      @ q % - g f h i p >       ",
"          o # $ & * +           "
};
