/* XPM */
static char *_2d7d3a4945f428fc1baf4ce37b9d394[] = {
/* columns rows colors chars-per-pixel */
"64 64 223 2 ",
"   c None",
".  c #8A6B35",
"X  c #8D6F39",
"o  c #886631",
"O  c #996F32",
"+  c #8D703C",
"@  c #9D7333",
"#  c #99743C",
"$  c #A37B3C",
"%  c #AB7E3B",
"&  c #A87B36",
"*  c #886D44",
"=  c #8F7348",
"-  c #907546",
";  c #9D7D44",
":  c #907549",
">  c #967B4C",
",  c #997D4B",
"<  c #9A7743",
"1  c #977D51",
"2  c #A47A41",
"3  c #A5813E",
"4  c #AC843E",
"5  c #B1843D",
"6  c #B2893D",
"7  c #CA8E3A",
"8  c #C48E3B",
"9  c #C5913E",
"0  c #CD943E",
"q  c #D0963F",
"w  c #9E814B",
"e  c #9D8047",
"r  c #9F8557",
"t  c #AA8443",
"y  c #AD8C44",
"u  c #A3854C",
"i  c #AC8C4B",
"p  c #A4864A",
"a  c #B28B43",
"s  c #B98B44",
"d  c #B68F49",
"f  c #AE904B",
"g  c #AF9045",
"h  c #B69346",
"j  c #B5934B",
"k  c #BA954A",
"l  c #BA9A4C",
"z  c #BB9445",
"x  c #A78A52",
"c  c #A98D53",
"v  c #A38856",
"b  c #AD9152",
"n  c #AC925C",
"m  c #B39453",
"M  c #BA9B53",
"N  c #BA9D5B",
"B  c #B3975A",
"V  c #BDA15B",
"C  c #BDA056",
"Z  c #AC9567",
"A  c #B49D6B",
"S  c #B89F6B",
"D  c #B59C65",
"F  c #B29D73",
"G  c #BCA163",
"H  c #BCA36A",
"J  c #BAA270",
"K  c #BDA87D",
"L  c #C28F41",
"P  c #C39343",
"I  c #CE9741",
"U  c #CB9A44",
"Y  c #C59C4B",
"T  c #CA9E4B",
"R  c #C0974A",
"E  c #D29B43",
"W  c #D29D47",
"Q  c #C49D53",
"!  c #CAA34B",
"~  c #C7A64E",
"^  c #D6A24A",
"/  c #D9A54C",
"(  c #D3AC4C",
")  c #DAA94E",
"_  c #D5A046",
"`  c #D8B24E",
"'  c #C3A453",
"]  c #CDA252",
"[  c #CBAB53",
"{  c #C3A55B",
"}  c #CBAB5D",
"|  c #C8A65B",
" . c #DDAC53",
".. c #DCAC5B",
"X. c #D5A955",
"o. c #CFB056",
"O. c #CFB35D",
"+. c #D3B455",
"@. c #D3B55B",
"#. c #DDB35C",
"$. c #DABB5A",
"%. c #DBB656",
"&. c #E1B74E",
"*. c #E1B256",
"=. c #E3B55A",
"-. c #E6B95C",
";. c #E8BD5E",
":. c #E0AF53",
">. c #C6A962",
",. c #CBAC62",
"<. c #C3A767",
"1. c #CDB166",
"2. c #CCB169",
"3. c #D2B562",
"4. c #DDBC63",
"5. c #D2B66B",
"6. c #DEB568",
"7. c #CCB378",
"8. c #DABE73",
"9. c #D3B976",
"0. c #D1AD69",
"q. c #E1B463",
"w. c #E4BC63",
"e. c #E9BE61",
"r. c #E2B86B",
"t. c #E5BF79",
"y. c #E5C75C",
"u. c #ECCD5C",
"i. c #E8C95B",
"p. c #EFD05E",
"a. c #DEC167",
"s. c #DBC074",
"d. c #DFC57D",
"f. c #ECC364",
"g. c #ECCE62",
"h. c #EBC46B",
"j. c #EEC96A",
"k. c #E5C469",
"l. c #F1CD6C",
"z. c #EFD163",
"x. c #EED26B",
"c. c #FADD63",
"v. c #F4D16F",
"b. c #F9DA6F",
"n. c #EBC575",
"m. c #EECB74",
"M. c #E5C27A",
"N. c #EAC57B",
"B. c #EDCA7C",
"V. c #E6C877",
"C. c #F1CE73",
"Z. c #F1CF7A",
"A. c #EDD17C",
"S. c #F5D372",
"D. c #F8D776",
"F. c #F9D976",
"G. c #F4D47B",
"H. c #F9DA7C",
"J. c #F7D879",
"K. c #FBE16F",
"L. c #FBE170",
"P. c #AFA18C",
"I. c #B3A385",
"U. c #BCAE94",
"Y. c #BFB198",
"T. c #C2AE81",
"R. c #C8B488",
"E. c #D5BD85",
"W. c #D2BE93",
"Q. c #C3B69D",
"!. c #C9BCA5",
"~. c #D9C287",
"^. c #D5C294",
"/. c #DDC692",
"(. c #E6CC86",
"). c #E3CB8A",
"_. c #ECCD8C",
"`. c #E8C882",
"'. c #F0CE85",
"]. c #EBD185",
"[. c #EDD289",
"{. c #F3D383",
"}. c #F5D984",
"|. c #FADC84",
" X c #F1D28C",
".X c #F6DA8D",
"XX c #FADE8C",
"oX c #E9CD93",
"OX c #ECD494",
"+X c #ECD59C",
"@X c #EEDA9C",
"#X c #F4D693",
"$X c #F5DB93",
"%X c #FADF92",
"&X c #F4D99A",
"*X c #F9DF9A",
"=X c #F1D79C",
"-X c #F8E08A",
";X c #FBE194",
":X c #FBE29C",
">X c #F7E09D",
",X c #CFC3AB",
"<X c #D4C7AB",
"1X c #DACDB0",
"2X c #EBD6A2",
"3X c #F4DCA2",
"4X c #F3DEAA",
"5X c #EDDFB6",
"6X c #E6D8B3",
"7X c #FCE4A3",
"8X c #F6E2AC",
"9X c #FDE6AB",
"0X c #FBE6AC",
"qX c #EFE1B9",
"wX c #F4E3B4",
"eX c #FBE6B3",
"rX c #FDE9B4",
"tX c #FDEAB9",
"yX c #F5E6B9",
"uX c #FBEDC4",
"iX c #F7EAC4",
"pX c #FDF1CD",
"aX c #FDF2D1",
/* pixels */
"                                                  P.Y.,X,X<X<X1X<X<X,X,X!.Q.P.                                                  ",
"                                            Q.,XaXrXaX-XwX8X].pX'.4X4Xn.aXoXiXpX,XQ.                                            ",
"                                      U.6XpX:XrX:X;XyX}.tX0X&XpX3XwXtXV.eX_.`.4Xr.uXyX1XU.                                      ",
"                                  Q.yXrX0X0X;XtX7XuXpXuXiXqXqXqX5XqXqXiXuXuXwXuXt._.oXr.uX6XQ.                                  ",
"                              I.6XrXtX>XtX0XuXtX+X~.~.E.7.J J D A A F 7.I.7.I.W.5XeXuXr.oXt.OX6XI.                              ",
"                            <XuX0XtX7XtXtX@X).9.G n B N 1.k.S.v.l.j.w.| M c v v F F R.yX2XwX..4X&X<X                            ",
"                        K wXrXrXrXrXtX$X].H B G ].-X|.H.H.J.J.b.S.S.l.l.l.f.f.q.B v v F 7.5X4X6.&X6.qXI.                        ",
"                      R.yXrXrXrXrX>X}.H V (.;X;X-XA.|.J.H.H.J.F.C.l.l.l.l.j.j.f.f.e...v v Z R.eX_.t.`.4XR.                      ",
"                    ^.tXtXtXrX7X-X8.N OX7X:X:X%XG.e.e.G.|.H.H.F.S.l.l.l.v.l.j.f.f.f.f.;...x n Z 2X7X..=X_.^.                    ",
"                  ^.rXrXeX0X$XA.N E.9X7X7X7X:X:X{.e.e.j.|.|.H.H.D.v.v.v.v.v.l.j.f.F.H.f.-.-.| u Z R.0X..=X`.^.                  ",
"                ^.0XrX0X8XA.s.G 4XrX9X3X0X7X7X:X{.l.j.G.XX|.|.H.F.D.D.D.S.v.l.l.S.H.|.G.f.;.-.*.x Z J 0X..N. X^.                ",
"              K 7X7X7X7Xd.a.K yXrX X'.'.9X7X7X7X*X.X%X%X-XXXXX|.H.H.F.F.S.S.v.v.C.|.|.G.e.e.;.-.=.N Z Z 7XM...3XT.              ",
"            J 7X7X7X7Xs.1.7.rXrX4Xn.-.-.{.9X9X7X7X*X:X:X;XXXXX|.|.H.H.F.F.D.S.S.S.l.C.j.f.e.;.;.=.=.{ Z D &X[./ >XF             ",
"            @X:X>X>Xs.1.7.0XrXrXeXZ.-.;.*X9X9X7X7X7X:X:X;X;XXXXX|.|.H.H.F.F.S.S.S.l.l.l.f.f.e.e.{.-.e.{ n S $X X..OX            ",
"          ~.;X;X:Xd.5.2.7X0X7XrXrX#X#X#X9XeX9X9X9X7X7X:X:X;X;X-XXXXX|.H.H.F.F.S.S.v.l.l.l.j.f..X7X7Xe.=.N n 7.B.B.N.~.          ",
"        A ;X;X;X].1.O.:X7X7X7X7XrXrXrXeXrXrXrX9X9X9X7X:X:X:X;X;XXXXX|.|.H.H.F.F.D.S.S.l.l.f.j.XX7X7X#Xw.=.x n (.w.#.;XF         ",
"        (.-X-X%X>.O..X:X%X*X7X7X9XrXrXtXtXtXrXrX9X9X7X7X:X:X:X;X;XXXXXXX|.|.H.F.F.v.S.S.l.l.j.G.*X*Xe.e.=.=.w c %Xk.^ ).        ",
"      H -X-X-X5.@.s.%XB.m.n.{.7X7X9X9XrXtXtXrXrXrX9X9X9X7X7X:X:X;X;XXXXX|.|.H.H.F.F.F.v.S.l.l.j.C.h.e.e.;.=.| c <.{.G.n.H       ",
"      A.|.|.}.{ @.XXXXZ.-.;.G.7X7X7X9X9XrXtXtXrXrXrX9X9X9X7X7X:X:X;X;XXXXX|.|.H.H.F.D.S.S.v.j.l.l.f.f.f.e.-.-.u c {. .m.`.      ",
"    H -XH.|.>.@.Z.XXXXC.e.;.Z.*X7X7X9X9X9XrXtXtXrXrXrXrX9X7X7X7X:X:X;X;X-XXX|.|.H.H.F.F.D.S.S.v.l.l.f.f.f.f.e...u N G. .k.H     ",
"    8.H.H.J.C $.|.|.XXXXZ.}..X:X*X7X7X7X9X9XrXtXtXtXrXrX9X9X9X7X7X:X:X;X;XXXXXXX|.H.H.F.S.D.v.x.l.l.j.j..X&XB.e.i c G.S.e.8.    ",
"    F.J.H.,.o.m.H.|.|.XXXXXX;X;X:X:X7X7X9X9X9XrXrXtXrXrXrX9X9X9X7X7X:X:X;X;XXXXX|.|.H.H.D.b.D.b.S.l.j.Z.7XrX9XC.@.u { k.e.H.    ",
"  <.F.S.H.j $.H.H.|.|.|.XXXXXXXX%X:X*X7X7X9X9XrXrXrXrXeXrXrXeX9X9X7X7X:X:X;X;X-XXX}.J.G.b.b.b.v.v.v.l.S.*X9X9XZ.;.p i F. .=.<.  ",
"  1.v.S.k.M $.F.H.H.H.|.|.}.= f $.z.M m *X7X7X9XrXrXtX^.w { x.$.<.7X7X7X:X:X;X].,.' +.$.u.c.i.$.[ [ f.l.}.#XC.f.f.j i h.S.j.1.  ",
"  S.S.S.| ! l.F.S.S.S.|.|.}.+ f @.z.M i 5.>X7X7XrXrXrX4XJ V x.3.S 9X9X7X7X7X9.f M ' [ $.z.K.p.+.[ l y [ l.l.l.f.f.w.e | ;.=.S.  ",
"n v.l.v.f o.S.S.l.f.j.S.H.}.+ f @.z.M i C (.7X7X7X9X0Xr 2X,.x.3.S 9X9X7X7X<.u i M ' o.$.u.c.u.$.[ l g 3 l l.l.j.f.f.p j S.-.f.n ",
"N f.f.v.f o.l.v.l.l.l.J.H.J.+ g @.z.l f M O.>X7X7X7X9X1 Z @Xx.3.D rX9X9X9., u f l ' k.G.|.|.J.j.o.l g 3 # 4.l.l.l.f.i i S.f.v.N ",
">.v.l.l.j [ l.v.l.l.S.D.H.J.+ f $.z.l i C [ k.>X7X7X0X1 w ~.;X3.S rXrX&X> , u c <.$X:X%XXX|.|.|.J.o.g M j.S.S.S.l.j.j i l.=.=.{ ",
">.-.e.k.l o.f.l.l.l.D.F.F.D.+ y +.p.l i l [ $..X:X7X7X, w V :Xs.D tXtXS : , u N :X:X:X;X;XXXXX|.|.H.a.F.F.S.D.XXXXl.[ f k.j.f.| ",
">.f.j.w.k =.f.j.l.l.v.D.F.S.+ f $.z.l i M [ $.g.;X:X7X1 w { x.&XS tXrX= : , u OX7X7X7X:X;X;XXXXX|.|.H.H.F.J.XX%XXX}.w.i k.f.f.| ",
"} e.f.w.l -.e.f.j.l.l.S.D.S.X g +.p.l f C [ @.g.L.;X>X, w { x.s.2XrXwX* : , S 9X7X7X7X:X:X;X;XXXXX|.|.H.H.H.|.XXXXv.j.i #.f.-.} ",
"} *.e.#.k w.e.e.f.f.l.l.S.S.X y +.p.l l l [ $.u.b.}.:X, w ' x.@.7.rX4X* : , E.rX9X9X7X7X:X:X:X;X-XXX-X|.H.H.F.|.D.D.S.y 4.l.f.>.",
"} f.j.#.k *.;.e.f.l.f.l.x.j.X g +.p.l V.l [ @.g.K.k.-X> e ' x.3.B rX3X* : , oXrX9X9X9X7X7X:X:X;X;XXXXXXX|.H.H.F.F.F.S.i #.f.-.} ",
"| ) -.#.j *.-.y.D.D.v.j.l.x.. y ` p.l A.a.~ $.u.c.g.a.> e ' x.@.B 9X2X* : , /.rXrX9X9X7X7X7X:X:X;X;XXXXX|.|.H.H.F.F.S.y #.f.f.{ ",
"| =.=.#.j ) *.v.D.F.S.f.j.j.. y +.p.l C.H.@.$.u.c.y.@.- e ' z.@.B 9X2X* : , R.rXrXrXrX9X9X7X7X:X:X;X;XXXXXXX|.|.H.F.j.i #.f.e.{ ",
"{ *.;.w.f T *.=.S.S.e.f.f.f.. y +.p.l x.H.G.$.i.c.y.+.+ e C z.@.B 7X3X* : , n rXtXrX9X9X9X7X7X7X:X:X;X;XXX-X|.|.H.H.O.f e.f.f.Q ",
"M / ^ e.t k  .*.=.-.-.e.f.-.. y ` u.l z.J.H.x.u.c.y.o.+ e ' z.@.m 7X7X1 = , u E.tXrXrXrXrX9X0X7X7X:X[.$X;XXX|.H.|.H.M d e.f.e.M ",
"m e.*.e.t k ) ) *.*.=.-.;.-.. y +.u.l x.F.J.H.z.c.y.o.+ # ' z.@.B :X7X7.- , u n +XtXtXrXrX0X0X0X7X#Xm c 9.XXH.H.H.}.j d e.f.f.m ",
"u :.) ;.t z / )  .:.*.=.-.-.. 4 ` i.l g.D.D.F.F.c.i.o.+ e ' z.@.B %X:X>Xv 1 u m B ).rXtXrXrX0X0X(.V j p < f H.F.H.|.i h f.f.e.u ",
"  -./ ) k y W ^ )  .*.*.-.-.o y ( p.h k.S.S.F.F.b.i.o.X ; ' g.+.B %X*X:XOX2 u c N { 3.].-X-X}.a.O.V b u < ~.-XH.XX{.t T ;.e.w.  ",
"  Q :.*. .t k / / ) e.e.n.*.o 4 +.i.h f.l.S.S.F.H.u.o.X ; ' z.+.m ;X;X:X:X).u b N | O.a.x.K.j.4.} M m x ~.:X:X;X;XV d  .j.l.Q   ",
"  m E W =.$ z W W t.XX*X'.=.o 4 ( i.h e.l.l.v.F.F.F.+.X 3 l p.+.j .X;X;X:X:X#XN N ' O.a.x.L.x.a.1.{ D OX7X7X:X:X:Xi z ;.j.-.f   ",
"    =.^ / s y U W w.*X*X X=.o 4 ( i.h w.j.l.v.v.S.F.j.O e l z.+.m XXXX;X;X:X:X7X).5.O.a.x.K.x.4.8.).9X9X9X7X7X*X(.h T =.f.;.    ",
"    Q / :.%.$ j E  .n.'.n. ...*.&.;.y.y.f.f.l.l.S.S.F.F.F.H.H.-X|.|.XXXX%X%X:X:X7X7X7X9X9XrXrXtXrXrX7X7X;X9X7X7Xm z %.C.v.Q     ",
"    i W 0  .4 a I E X./ W  . .:.:.=.-.;.i.e.j.l.l.S.D.D.F.H.H.H.|.|.XX-XXX;X;X:X:X7X7X7X9X9XrXrXtXrXXXS.G.%X7XOXd T e.f.*.i     ",
"      ] ) q ) $ d E E W / W )  .:.:.=.-.;.e.f.f.l.l.v.D.F.F.H.H.H.|.|.|.XXXX-X;X:X:X7X7X7X9XrXrXtXrX|.l.l.3X9XM R  .=.C.X.      ",
"      i W ) ) y t P E E W W ) ) *.*.=.=.-.;.e.f.j.l.l.S.F.F.F.H.H.|.|.|.XXXXXX;X;X;X:X7X7X9X9X9XrXrX.XG.}.*XE.k ! q.{.e.i       ",
"        T 7 E  .$ s E E W W  .&X3X=.:.:.=.;.e.e.f.f.l.l.v.D.F.F.H.H.H.|.|.|.XX%X%X;X:X:X7X7X7X9X9XrXtX7XrX8Xk ! ..G.q.T         ",
"        2 ..I E T $ j q E / #XtXtX X . .*.=.-.;.e.f.f.l.l.S.D.D.F.H.H.H.|.|.XXXXXX%X;X:X:X:X7X9X9X9XrXrXtXN ! ) r.e.w.u         ",
"          Q W W W s t l q q r.tXrX X)  . .*.=.-.;.e.f.f.l.l.S.S.F.H.H.H.H.|.|.|.XXXXXX;X*X}.%X%X9X9X9XrX<.! ( ..B.{.R           ",
"            W 7 ^ / & t Q q ....B.W / ) .. .*.=.-.;.f.f.j.l.l.S.D.F.F.H.H.|.|.|.XXXXXX%X|.l.j..X7X9X9X7.! ( ) #Xn.]             ",
"            2 ) 7 W / $ a Q I I _ E E / )  .n.*.-.-.;.e.f.f.l.l.S.S.F.F.H.H.H.|.|.XXXXXXG.l.j.Z.*X7X5.! ) ) #Xq...2             ",
"              i ^ 7 I ^ $ t R I I E W / ^  X%X%X-.=.=.;.e.f.f.l.l.S.D.D.F.H.H.H.|.|.|.XXXXS.G.}.:X,.( ` )  Xq.r.t               ",
"                s E I 0 W & 4 j I I E E =..X*X;XC.:.=.-.;.f.h.C.l.l.S.D.F.D.F.D.H.|.|.|.XXXX.X.X} ` *.) N.N.N.d                 ",
"                  s q E 7 ^ 5 @ y R I E W r..X'.) :.:.=.e.C.|.D.l.j.l.v.D.D.S.S.H.|.|.|.|.XXs.( &.&. .q.#Xr.s                   ",
"                    s I E 7 W P O 4 d I E  ./ =.)  .*.*.-.D.H.H.j.j.j.l.S.S.S.l.D.H.H.|.A.+.` ` / q. .&X/ s                     ",
"                      t W I I I E % O 4 d U E _ ^ )  .:.=.C.H.S.f.f.f.l.v.v.S.S.F.H.m.( ( ( / _ N.q. X/ t                       ",
"                        2 U 7 I 0 E I & @ $ y d W ^ /  .*.*.f.=.;.f.f.j.l.l.S.j.O.( ! ! ! _  .r.B.q.W <                         ",
"                            s 0 I 7 E E I & @ & 4 a h z Y X.*.=.=.-.*.) ~ ! ! R P P I E _ m.) {.E s                             ",
"                              2 9 0 q q 0 E E 9 & @ O @ & % 4 5 6 6 6 6 6 6 6 9 I W =./ C. .#.P 2                               ",
"                                  2 P E 0 q q E E E q q 0 7 8 9 9 9 9 I q q _ =.^ f.q.-.=.P 2                                   ",
"                                      2 6 q q I q E W E / E E ^ I ) ^ E -./ =.-.) e.E 6 2                                       ",
"                                            2 5 q I E q / E E ) E  ./ / =.I ) q t %                                             ",
"                                                  # $ % % 5 5 5 5 5 5 4 % $ #                                                   "
};
